<svg xmlns="http://www.w3.org/2000/svg" width="1400" height="560" viewBox="0 0 1400 560">
  <defs>
    <linearGradient id="bg" x1="0" y1="0" x2="1" y2="1"><stop stop-color="#061923"/><stop offset="1" stop-color="#0b3440"/></linearGradient>
    <linearGradient id="river" x1="0" y1="0" x2="1" y2="0"><stop stop-color="#37d5c5"/><stop offset="1" stop-color="#82e6ff"/></linearGradient>
    <filter id="glow"><feGaussianBlur stdDeviation="7" result="b"/><feMerge><feMergeNode in="b"/><feMergeNode in="SourceGraphic"/></feMerge></filter>
  </defs>
  <rect width="1400" height="560" rx="32" fill="url(#bg)"/>
  <g fill="none" stroke="url(#river)" stroke-linecap="round" opacity=".72">
    <path d="M40 440 C250 350 230 170 430 208 S660 456 840 327 S1050 130 1360 190" stroke-width="10"/>
    <path d="M406 208 C365 132 310 105 250 73" stroke-width="5"/>
    <path d="M833 328 C930 385 1000 435 1100 495" stroke-width="5"/>
  </g>
  <g fill="#ff8d5b" filter="url(#glow)"><circle cx="250" cy="73" r="7"/><circle cx="430" cy="208" r="12"/><circle cx="840" cy="327" r="18"/><circle cx="1100" cy="495" r="9"/><circle cx="1240" cy="161" r="14"/></g>
  <text x="88" y="116" fill="#87b6b8" font-family="Segoe UI, sans-serif" font-size="20" letter-spacing="4">SURF 2024 · FIELD NOTES / 01</text>
  <text x="88" y="178" fill="#f2fffd" font-family="Segoe UI, sans-serif" font-size="54" font-weight="750">Where rivers breathe methane</text>
  <text x="88" y="226" fill="#abd0d1" font-family="Segoe UI, sans-serif" font-size="24">A reproducible trail through 1,113 flux records, from coordinates to catchments.</text>
  <g transform="translate(88 285)">
    <rect width="196" height="82" rx="16" fill="#ffffff" fill-opacity=".07" stroke="#ffffff" stroke-opacity=".13"/>
    <text x="20" y="34" fill="#87b6b8" font-family="Segoe UI, sans-serif" font-size="15">CURATED RECORDS</text><text x="20" y="66" fill="#f2fffd" font-family="Segoe UI, sans-serif" font-size="29" font-weight="700">1,113</text>
    <rect x="212" width="196" height="82" rx="16" fill="#ffffff" fill-opacity=".07" stroke="#ffffff" stroke-opacity=".13"/>
    <text x="232" y="34" fill="#87b6b8" font-family="Segoe UI, sans-serif" font-size="15">STUDY LENS</text><text x="232" y="66" fill="#f2fffd" font-family="Segoe UI, sans-serif" font-size="25" font-weight="700">CH₄ flux</text>
  </g>
</svg>
